<svg xmlns="http://www.w3.org/2000/svg" xmlns:xlink="http://www.w3.org/1999/xlink" width="1280" zoomAndPan="magnify" viewBox="0 0 960 239.999995" height="320" preserveAspectRatio="xMidYMid meet" version="1.0"><defs><clipPath id="9dc0100799"><path d="M 0 238.277344 L 1.300781 238.277344 L 1.300781 239.5 L 0 239.5 Z M 0 238.277344 " clip-rule="nonzero"/></clipPath><clipPath id="28bd3de399"><path d="M 1.273438 238.726562 C 0.601562 239.699219 0 239.550781 -0.0742188 239.324219 C -0.226562 239.101562 -0.148438 238.5 0.0742188 238.351562 C 0.300781 238.199219 1.050781 238.425781 1.050781 238.425781 " clip-rule="nonzero"/></clipPath><clipPath id="a01bfe0d0e"><path d="M 0 0.277344 L 1.300781 0.277344 L 1.300781 1.5 L 0 1.5 Z M 0 0.277344 " clip-rule="nonzero"/></clipPath><clipPath id="789369c69d"><path d="M 1.273438 0.726562 C 0.601562 1.699219 0 1.550781 -0.0742188 1.324219 C -0.226562 1.101562 -0.148438 0.5 0.0742188 0.351562 C 0.300781 0.199219 1.050781 0.425781 1.050781 0.425781 " clip-rule="nonzero"/></clipPath><clipPath id="40c693d50b"><rect x="0" width="2" y="0" height="2"/></clipPath></defs><g clip-path="url(#9dc0100799)"><g clip-path="url(#28bd3de399)"><g transform="matrix(1, 0, 0, 1, 0, 238)"><g clip-path="url(#40c693d50b)"><g clip-path="url(#a01bfe0d0e)"><g clip-path="url(#789369c69d)"><rect x="-211.2" width="1382.4" fill="#f5f5f5" height="345.599992" y="-290.799999" fill-opacity="1"/></g></g></g></g></g></g></svg>